:SAMPLES-PER-SECOND 30
:FULLY-SPECIFIED
:DEGREES
353
root  37.237 37.64 2.54082 178.274 -60.3064 175.239
RightUpLeg  -18.7831 -3.43304 -0.681051
RightLeg  -0.401386 1.77931 0.220779
RightFoot  -5.76829 -0.313071 5.36371
RightToes  2.91037e-010 0 -3.6325e-017
Spine  11.7803 -2.13904 0.391771
Spine1  10.4062 -2.82681 1.87628
HEad  12.254 30.46 -31.8344
LeftShoulder1  1.00613 0.728048 -30.1691
LeftArm  2.15204 -3.59543 -39.8508
LeftForeArm  16.0819 -12.9444 -8.36551
LeftHand  -0.0556737 4.08855 3.20324
RightShoulder  -0.363328 -4.55707 27.4175
RightArm  21.2206 -4.86988 43.0328
RightForeArm  -6.12783 24.1852 5.47758
RightHand  -0.519991 2.74565 -7.6359
LeftUpLeg  18.5406 4.30934 -7.68564
LeftLeg  13.1134 -15.3909 -2.65418
LeftFoot  -17.4458 0.870143 14.2777
LeftToes  -7.53974e-010 3.3384e-011 -1.25048e-011
354
root  35.6999 37.3923 1.83781 177.718 -61.807 176.013
RightUpLeg  -20.2132 -2.9457 0.244085
RightLeg  4.79639 2.49791 0.480578
RightFoot  -1.99227 -0.136168 2.49302
RightToes  2.91037e-010 0 -3.6325e-017
Spine  10.7295 -2.12256 1.72517
Spine1  10.7706 -2.74456 1.81511
HEad  11.4688 29.8565 -31.7856
LeftShoulder1  0.87227 1.12282 -30.5588
LeftArm  2.73987 -0.521077 -39.6461
LeftForeArm  14.9624 -14.1267 -7.80298
LeftHand  -0.0447414 4.38941 2.71697
RightShoulder  -0.393758 -4.64668 27.4598
RightArm  19.5282 -3.8471 41.9335
RightForeArm  -5.95467 23.0644 5.26825
RightHand  -0.558328 2.79256 -8.13667
LeftUpLeg  20.683 3.65388 -7.06064
LeftLeg  14.4223 -16.1622 -3.30456
LeftFoot  -17.6503 0.857821 13.5494
LeftToes  -7.53974e-010 3.3384e-011 -1.25048e-011
355
root  34.0926 37.289 1.16849 175.183 -63.3516 179.069
RightUpLeg  -21.7987 -1.9091 1.55396
RightLeg  10.904 3.231 0.514878
RightFoot  5.78442 0.426568 -2.87634
RightToes  2.91037e-010 0 -3.6325e-017
Spine  9.73964 -2.3081 4.53891
Spine1  11.3477 -2.85787 2.00165
HEad  9.73987 29.6143 -32.2815
LeftShoulder1  0.823773 1.29483 -31.2093
LeftArm  2.70524 2.71713 -39.378
LeftForeArm  14.4284 -14.311 -7.6771
LeftHand  -0.0485035 4.33586 3.06089
RightShoulder  -0.451457 -4.82243 27.2847
RightArm  17.7702 -2.91005 40.9915
RightForeArm  -6.49039 21.0955 5.16567
RightHand  -0.597829 3.4945 -8.04905
LeftUpLeg  22.5354 1.74435 -5.72974
LeftLeg  15.9199 -16.3402 -4.2641
LeftFoot  -16.5171 0.644943 12.0925
LeftToes  -7.53974e-010 3.3384e-011 -1.25048e-011
356
root  32.4018 37.1326 0.503828 172.037 -63.8185 -177.131
RightUpLeg  -22.9214 -0.232976 2.28236
RightLeg  17.5814 1.4146 0.269907
RightFoot  6.78488 0.165347 -0.73338
RightToes  2.91037e-010 0 -3.6325e-017
Spine  9.55382 -2.58645 8.88906
Spine1  9.9367 -2.05771 -0.268783
HEad  8.52604 29.5506 -32.312
LeftShoulder1  0.797326 1.3714 -31.3134
LeftArm  3.34503 6.93328 -39.1152
LeftForeArm  13.9305 -14.5307 -7.64079
LeftHand  -0.0492565 4.3011 3.2144
RightShoulder  -0.554004 -5.09003 28.1496
RightArm  15.6774 -2.44279 39.5834
RightForeArm  -6.46195 18.5911 5.29968
RightHand  -0.573959 3.18198 -8.00711
LeftUpLeg  22.7656 0.76396 -3.77059
LeftLeg  20.5978 -17.2687 -6.80792
LeftFoot  -14.2689 0.335181 9.87109
LeftToes  -7.53974e-010 3.3384e-011 -1.25048e-011
357
root  30.8557 37.0706 -0.132661 169.787 -64.1171 -174.161
RightUpLeg  -23.5352 -0.462924 3.38797
RightLeg  23.0059 1.7133 0.549481
RightFoot  4.80166 0.374333 -2.42132
RightToes  2.91037e-010 0 -3.6325e-017
Spine  10.1177 -2.60995 11.5769
Spine1  8.15238 -1.55977 -0.512094
HEad  7.86632 29.6604 -32.2256
LeftShoulder1  0.786929 1.4113 -31.5265
LeftArm  1.84719 10.7645 -39.3119
LeftForeArm  15.7581 -13.2349 -7.98544
LeftHand  -0.056544 3.86966 2.52433
RightShoulder  -0.507953 -4.97164 27.7701
RightArm  13.7869 -2.22158 39.4665
RightForeArm  -6.28621 15.4232 5.71881
RightHand  -0.530191 2.48044 -8.02071
LeftUpLeg  20.3401 1.98627 -0.806513
LeftLeg  29.0559 -20.2148 -11.4748
LeftFoot  -8.8002 -0.0162694 4.55373
LeftToes  -7.53974e-010 3.3384e-011 -1.25048e-011
358
root  29.5127 37.0609 -0.762139 166.902 -66.1742 -170.924
RightUpLeg  -23.0602 -0.11766 3.99535
RightLeg  27.0879 -0.539463 -0.526081
RightFoot  0.861636 0.338012 -3.08667
RightToes  2.91037e-010 0 -3.6325e-017
Spine  10.6634 -2.96676 12.6272
Spine1  7.34143 -1.82621 1.13555
HEad  7.50633 28.8392 -31.565
LeftShoulder1  0.838011 1.27265 -31.4898
LeftArm  0.531447 13.3254 -39.9492
LeftForeArm  18.5095 -11.8428 -8.35058
LeftHand  -0.0245286 5.68254 1.14017
RightShoulder  -0.495779 -4.94328 27.596
RightArm  12.3525 -1.81745 39.6205
RightForeArm  -6.50684 12.7037 6.17056
RightHand  -0.511333 2.61744 -7.6216
LeftUpLeg  15.3549 0.804175 1.61598
LeftLeg  40.2526 -19.7833 -16.7153
LeftFoot  -0.0127128 0.552855 -5.09515
LeftToes  -7.53974e-010 3.3384e-011 -1.25048e-011
359
root  28.3094 37.1277 -1.30401 162.776 -68.8404 -166.17
RightUpLeg  -21.8836 -1.86596 4.94399
RightLeg  29.0258 -1.56993 -1.18655
RightFoot  -2.3691 0.221208 -3.00638
RightToes  2.91037e-010 0 -3.6325e-017
Spine  10.5383 -3.32789 14.7998
Spine1  7.27591 -1.7721 1.57886
HEad  7.10849 26.5998 -30.3958
LeftShoulder1  0.918079 1.03279 -31.0782
LeftArm  0.170653 14.0084 -40.7614
LeftForeArm  22.5062 -10.7962 -8.74094
LeftHand  -0.0327254 5.05745 0.855189
RightShoulder  -0.56286 -5.12485 27.9309
RightArm  11.7022 -1.77513 39.8024
RightForeArm  -6.57661 11.5677 6.31141
RightHand  -0.486322 2.25017 -7.58618
LeftUpLeg  8.2871 -1.29774 3.71273
LeftLeg  50.7406 -15.5859 -19.0028
LeftFoot  10.8018 2.57351 -13.5479
LeftToes  -7.53974e-010 3.3384e-011 -1.25048e-011
360
root  27.0861 37.3196 -1.84237 160.059 -70.6989 -163.435
RightUpLeg  -19.511 -3.80927 5.1719
RightLeg  29.5366 -1.61267 -1.24416
RightFoot  -5.16126 0.107145 -2.63675
RightToes  2.91037e-010 0 -3.6325e-017
Spine  10.8087 -3.18032 16.4423
Spine1  7.19989 -1.05798 1.09269
HEad  6.96238 23.8284 -29.0924
LeftShoulder1  0.923618 1.00983 -30.9609
LeftArm  0.939138 14.0612 -41.0397
LeftForeArm  25.7925 -11.1477 -8.73313
LeftHand  -0.042404 5.15754 -0.460159
RightShoulder  -0.617554 -5.26141 28.4025
RightArm  12.7695 -2.13862 39.9647
RightForeArm  -7.69179 12.0849 6.50044
RightHand  -0.511321 2.78684 -7.46156
LeftUpLeg  2.15467 -1.76426 5.08998
LeftLeg  57.5925 -10.6572 -16.9976
LeftFoot  15.6282 3.90019 -16.5895
LeftToes  -7.53974e-010 3.3384e-011 -1.25048e-011
361
root  25.7301 37.779 -2.45367 160.737 -72.2006 -164.511
RightUpLeg  -15.4781 -5.89248 4.20591
RightLeg  27.6983 -0.972112 -0.802101
RightFoot  -7.00921 0.0439117 -2.42
RightToes  2.91037e-010 0 -3.6325e-017
Spine  10.7484 -2.70915 16.2147
Spine1  7.17378 -0.445645 0.250014
HEad  6.51305 21.817 -28.237
LeftShoulder1  0.800346 1.34595 -31.0067
LeftArm  2.26775 14.3112 -41.1366
LeftForeArm  26.1361 -12.5552 -8.29036
LeftHand  -0.0367438 4.66048 -0.926529
RightShoulder  -0.540294 -5.04409 28.2709
RightArm  14.4474 -2.24497 41.3524
RightForeArm  -6.41722 12.7254 6.68973
RightHand  -0.573528 3.04115 -8.11826
LeftUpLeg  -3.26706 -1.24285 4.96824
LeftLeg  61.4741 -6.82306 -12.877
LeftFoot  10.2518 2.22423 -11.9402
LeftToes  -7.53974e-010 3.3384e-011 -1.25048e-011
362
root  24.3836 38.1891 -3.02858 163.255 -73.121 -167.328
RightUpLeg  -11.5846 -7.52829 2.86616
RightLeg  25.5845 -0.202362 -0.295959
RightFoot  -8.50469 -6.4732e-005 -2.3223
RightToes  2.91037e-010 0 -3.6325e-017
Spine  10.8131 -1.94425 16.042
Spine1  6.5541 0.592662 -1.18136
HEad  6.27529 19.9513 -27.3878
LeftShoulder1  0.823983 1.26175 -30.6891
LeftArm  3.66893 15.2412 -41.2216
LeftForeArm  23.3919 -14.32 -7.56551
LeftHand  -0.032667 4.39026 -1.07228
RightShoulder  -0.569348 -5.12463 28.3477
RightArm  18.1605 -1.94628 42.4047
RightForeArm  -5.23863 13.7953 7.03515
RightHand  -0.498735 2.87188 -7.23819
LeftUpLeg  -8.26391 -0.0892497 4.21066
LeftLeg  62.1473 -4.70053 -9.06179
LeftFoot  7.33437 1.1791 -7.50551
LeftToes  -7.53974e-010 3.3384e-011 -1.25048e-011
363
root  23.0366 38.5464 -3.58511 166.919 -73.4762 -171.407
RightUpLeg  -7.61883 -8.49086 1.22613
RightLeg  23.3293 0.515799 0.230932
RightFoot  -9.64324 -0.0319484 -2.24969
RightToes  2.91037e-010 0 -3.6325e-017
Spine  10.8833 -1.12853 15.6137
Spine1  6.1127 1.68363 -2.98547
HEad  6.06411 18.6346 -26.5365
LeftShoulder1  0.868195 1.09624 -29.9702
LeftArm  5.28951 16.5293 -41.5493
LeftForeArm  18.9903 -16.6621 -6.49837
LeftHand  -0.0301961 4.30695 -0.477919
RightShoulder  -0.54558 -5.06812 28.0846
RightArm  21.6822 -1.99691 44.0829
RightForeArm  -6.02169 15.8048 6.8114
RightHand  -0.52532 2.56023 -7.88317
LeftUpLeg  -12.1601 1.47073 3.04958
LeftLeg  59.6366 -3.68058 -6.23354
LeftFoot  4.89571 0.816669 -5.89023
LeftToes  -7.53974e-010 3.3384e-011 -1.25048e-011
